<?xml version="1.0" encoding="UTF-8" standalone="no"?>
<!-- Created with Inkscape (http://www.inkscape.org/) -->

<svg
   xmlns:dc="http://purl.org/dc/elements/1.1/"
   xmlns:cc="http://creativecommons.org/ns#"
   xmlns:rdf="http://www.w3.org/1999/02/22-rdf-syntax-ns#"
   xmlns:svg="http://www.w3.org/2000/svg"
   xmlns="http://www.w3.org/2000/svg"
   xmlns:sodipodi="http://sodipodi.sourceforge.net/DTD/sodipodi-0.dtd"
   xmlns:inkscape="http://www.inkscape.org/namespaces/inkscape"
   width="16.000402"
   height="16"
   id="svg2"
   version="1.1"
   inkscape:version="0.91 r13725"
   sodipodi:docname="snlogo.svg">
  <defs
     id="defs4" />
  <sodipodi:namedview
     id="base"
     pagecolor="#ffffff"
     bordercolor="#666666"
     borderopacity="1.0"
     inkscape:pageopacity="0.0"
     inkscape:pageshadow="2"
     inkscape:zoom="22.627417"
     inkscape:cx="8.0002012"
     inkscape:cy="8"
     inkscape:document-units="px"
     inkscape:current-layer="layer1"
     showgrid="false"
     units="px"
     fit-margin-top="0"
     fit-margin-left="0"
     fit-margin-right="0"
     fit-margin-bottom="0"
     inkscape:window-width="1920"
     inkscape:window-height="1177"
     inkscape:window-x="0"
     inkscape:window-y="0"
     inkscape:window-maximized="1"
     inkscape:snap-bbox="true"
     inkscape:bbox-paths="false"
     inkscape:bbox-nodes="true"
     inkscape:snap-others="false"
     inkscape:snap-global="false"
     showguides="false">
    <inkscape:grid
       type="xygrid"
       id="grid3347" />
  </sodipodi:namedview>
  <metadata
     id="metadata7">
    <rdf:RDF>
      <cc:Work
         rdf:about="">
        <dc:format>image/svg+xml</dc:format>
        <dc:type
           rdf:resource="http://purl.org/dc/dcmitype/StillImage" />
        <dc:title />
      </cc:Work>
    </rdf:RDF>
  </metadata>
  <g
     inkscape:label="Layer 1"
     inkscape:groupmode="layer"
     id="layer1"
     transform="translate(-18.905848,-864.01155)">
    <path
       style="fill:#204080;fill-opacity:1"
       d="M 1,0 C 0.446,0 0,0.446 0,1 c 0.01721931,1.5633169 0,3.3289289 0,4.703125 0,1.71846 0.925256,2.3692186 3.0625,2.9179688 1.516289,0.3610199 1.9628906,0.648758 1.9628906,1.4863282 0,1.03974 -0.5635436,1.589844 -1.7910156,1.589844 -1.025299,0 -2.97460937,-0.259766 -2.97460938,-0.259766 L 0.1015625,12.722656 c 0,0 1.949141,0.388672 3.234375,0.388672 1.949514,0 3.3066406,-0.937385 3.3066406,-3.103516 C 6.6425781,8.318233 5.891981,7.7690362 3.8125,7.1914062 2.122922,6.7292962 1.6035156,6.5121106 1.6035156,5.5878906 c 0,-0.85201 0.6209544,-1.2851562 1.8339844,-1.2851562 0.837569,0 2.859375,0.2324218 2.859375,0.2324218 L 6.4257812,3.234375 c 0,0 -1.0811741,-0.1970611 -2.1523437,-0.2929688 C 4.9470226,2.6752669 5.6406883,2.437943 6.3457031,2.2324219 9.8625298,1.2241415 13.417139,1.0731263 16,1.8222656 L 16,1 C 16,0.446 15.554,0 15,0 Z m 7.375,3.0605469 0,9.8925781 1.6035156,0 0,-8.4902344 0.2011724,0 2.904296,8.0175784 C 12.002621,12.989297 10.845658,13.423488 9.6542969,13.767578 6.1374701,14.775858 2.582861,14.926873 0,14.177734 L 0,15 c 0,0.554 0.446,1 1,1 l 14,0 c 0.554,0 1,-0.446 1,-1 l 0,-2.046875 0,-2.15625 0,-7.7363281 -1.603516,0 0,8.4765621 -0.216796,0 -3.001954,-8.4765621 z"
       transform="translate(18.905848,864.01155)"
       id="rect3349"
       inkscape:connector-curvature="0"
       sodipodi:nodetypes="scccssccsscsscccccsssccccccccsssscccccccc" />
    <rect
       style="fill:#ffffff;stroke:#000080;stroke-width:5.31496048;stroke-linecap:round;stroke-linejoin:round;stroke-miterlimit:4;stroke-dasharray:none"
       id="rect3769"
       width="12.483832"
       x="53.776508"
       y="7.8644743"
       transform="translate(0,857.4803)"
       rx="3"
       height="0" />
    <flowRoot
       xml:space="preserve"
       id="flowRoot3793"
       style="font-size:12px;font-style:normal;font-weight:normal;line-height:125%;letter-spacing:0px;word-spacing:0px;fill:#000000;fill-opacity:1;stroke:none;font-family:Sans"><flowRegion
         id="flowRegion3795"><rect
           id="rect3797"
           width="25.226749"
           height="15.741491"
           x="3.8344657"
           y="9.4148254" /></flowRegion><flowPara
         id="flowPara3799" /></flowRoot>    <flowRoot
       xml:space="preserve"
       id="flowRoot3815"
       style="font-size:12px;font-style:normal;font-weight:normal;line-height:125%;letter-spacing:0px;word-spacing:0px;fill:#000000;fill-opacity:1;stroke:none;font-family:Sans"
       transform="translate(0,857.4803)"><flowRegion
         id="flowRegion3817"><rect
           id="rect3819"
           width="11.63794"
           height="14.396065"
           x="3.1617525"
           y="15.20016" /></flowRegion><flowPara
         id="flowPara3821" /></flowRoot>  </g>
</svg>
